<svg width="92" height="21" viewBox="0 0 92 21" fill="none" xmlns="http://www.w3.org/2000/svg">
<g id="LOGO" clip-path="url(#clip0_565_76)">
<path id="Vector" d="M91.3511 20.0591H87.3642V10.062C87.3103 10.0523 87.2565 10.0445 87.2007 10.0347C86.8697 10.7273 86.5349 11.42 86.2059 12.1145C85.0533 14.5377 83.893 16.9609 82.7597 19.3899C82.5827 19.7704 82.371 19.9869 81.8861 19.903C81.7707 19.8835 81.6475 19.8991 81.5282 19.8991C80.0178 19.8991 80.0216 19.8991 79.4348 18.631C78.1321 15.8195 76.8237 13.01 75.5172 10.2006C75.4652 10.0893 75.3998 9.98204 75.242 9.88254V20.0572H71.2744V0.51565H74.1241C75.5441 0.51565 75.5557 0.511748 76.0829 1.69017C77.7126 5.3425 79.3347 8.99872 80.9587 12.6511C81.053 12.8657 81.153 13.0764 81.2858 13.3729C81.3936 13.1993 81.4763 13.092 81.5282 12.9749C83.2966 9.02604 85.0687 5.08106 86.8139 1.12437C87.0179 0.660026 87.2738 0.47858 87.8472 0.501992C88.9978 0.546866 90.1523 0.51565 91.3511 0.51565V20.0591Z" fill="white"/>
<path id="Vector_2" d="M51.8719 0.539062H56.1897V1.1829C56.1897 5.2469 56.1858 9.31284 56.1897 13.3768C56.1916 15.6264 58.0157 16.8984 60.4517 16.3424C61.7005 16.0575 62.4163 15.3025 62.6491 14.1865C62.7241 13.8217 62.7414 13.4412 62.7414 13.0686C62.7472 9.12944 62.7453 5.18836 62.7453 1.24924V0.562475H67.0593C67.0689 0.720508 67.0881 0.890248 67.0881 1.06194C67.0881 5.14349 67.0997 9.227 67.0843 13.3085C67.0785 15.2128 66.5628 16.9862 65.1428 18.4632C63.4822 20.1879 61.2579 20.582 58.8604 20.4864C56.6669 20.3986 54.7658 19.7352 53.4304 18.0944C52.3394 16.7541 51.8488 15.2186 51.8392 13.5797C51.8122 9.35576 51.8295 5.12983 51.8315 0.905856C51.8315 0.8005 51.8526 0.697096 51.87 0.541014L51.8719 0.539062Z" fill="white"/>
<path id="Vector_3" d="M46.1391 12.1593H38.6118V16.2565H47.6611C47.5071 17.5558 47.3609 18.7889 47.2108 20.0532H34.4883V0.566284H47.5956C47.4648 1.69983 47.3378 2.80802 47.2031 3.98058H38.6175V8.30407H46.5412C46.4046 9.61516 46.2757 10.858 46.1391 12.1593Z" fill="white"/>
<path id="Vector_4" d="M29.3971 20.0649H16.7207V0.566284H29.8011C29.6684 1.68617 29.5375 2.79241 29.3971 3.98058H20.8057V8.32358H28.7275C28.6024 9.56833 28.4946 10.7526 28.3388 11.9291C28.3253 12.0247 27.979 12.1495 27.7885 12.1515C25.7161 12.1671 23.6438 12.1612 21.5715 12.1612C21.3348 12.1612 21.0982 12.1612 20.8172 12.1612V16.2526H29.88C29.7145 17.5636 29.5587 18.7947 29.399 20.0649H29.3971Z" fill="white"/>
<path id="Vector_5" d="M12.7687 16.2527C12.6436 17.5813 12.5282 18.8007 12.4108 20.0533H0V0.554688H4.05613V16.2527H12.7668H12.7687Z" fill="white"/>
</g>
<defs>
<clipPath id="clip0_565_76">
<rect width="91.3513" height="20" fill="white" transform="translate(0 0.5)"/>
</clipPath>
</defs>
</svg>
