<svg width="92" height="21" viewBox="0 0 92 21" fill="none" xmlns="http://www.w3.org/2000/svg">
<g clip-path="url(#clip0_761_885)">
<path d="M91.3511 20.059H87.3642V10.062C87.3103 10.0522 87.2565 10.0444 87.2007 10.0347C86.8697 10.7273 86.5349 11.4199 86.2059 12.1145C85.0533 14.5376 83.893 16.9608 82.7597 19.3898C82.5827 19.7703 82.371 19.9869 81.8861 19.903C81.7707 19.8835 81.6475 19.8991 81.5282 19.8991C80.0178 19.8991 80.0216 19.8991 79.4348 18.6309C78.1321 15.8195 76.8237 13.01 75.5172 10.2005C75.4652 10.0893 75.3998 9.98198 75.242 9.88248V20.0571H71.2744V0.515589H74.1241C75.5441 0.515589 75.5557 0.511687 76.0829 1.69011C77.7126 5.34243 79.3347 8.99866 80.9587 12.651C81.053 12.8656 81.153 13.0763 81.2858 13.3729C81.3936 13.1992 81.4763 13.0919 81.5282 12.9749C83.2966 9.02598 85.0687 5.081 86.8139 1.12431C87.0179 0.659965 87.2738 0.478519 87.8472 0.501931C88.9978 0.546805 90.1523 0.515589 91.3511 0.515589V20.059Z" fill="black"/>
<path d="M51.8719 0.539001H56.1897V1.18284C56.1897 5.24683 56.1858 9.31278 56.1897 13.3768C56.1916 15.6263 58.0157 16.8984 60.4517 16.3423C61.7005 16.0575 62.4163 15.3024 62.6491 14.1865C62.7241 13.8216 62.7414 13.4412 62.7414 13.0685C62.7472 9.12938 62.7453 5.1883 62.7453 1.24918V0.562414H67.0593C67.0689 0.720447 67.0881 0.890187 67.0881 1.06188C67.0881 5.14343 67.0997 9.22694 67.0843 13.3085C67.0785 15.2127 66.5628 16.9862 65.1428 18.4631C63.4822 20.1878 61.2579 20.5819 58.8604 20.4863C56.6669 20.3985 54.7658 19.7352 53.4304 18.0944C52.3394 16.754 51.8488 15.2185 51.8392 13.5797C51.8122 9.3557 51.8295 5.12977 51.8315 0.905795C51.8315 0.800439 51.8526 0.697035 51.87 0.540952L51.8719 0.539001Z" fill="black"/>
<path d="M46.1391 12.1594H38.6118V16.2565H47.6611C47.5071 17.5559 47.3609 18.789 47.2108 20.0532H34.4883V0.566345H47.5956C47.4648 1.69989 47.3378 2.80808 47.2031 3.98065H38.6175V8.30413H46.5412C46.4046 9.61522 46.2757 10.858 46.1391 12.1594Z" fill="black"/>
<path d="M29.3971 20.0649H16.7207V0.566345H29.8011C29.6684 1.68624 29.5375 2.79247 29.3971 3.98065H20.8057V8.32364H28.7275C28.6024 9.56839 28.4946 10.7527 28.3388 11.9291C28.3253 12.0247 27.979 12.1496 27.7885 12.1516C25.7161 12.1672 23.6438 12.1613 21.5715 12.1613C21.3348 12.1613 21.0982 12.1613 20.8172 12.1613V16.2526H29.88C29.7145 17.5637 29.5587 18.7948 29.399 20.0649H29.3971Z" fill="black"/>
<path d="M12.7687 16.2526C12.6436 17.5813 12.5282 18.8007 12.4108 20.0532H0V0.554626H4.05613V16.2526H12.7668H12.7687Z" fill="black"/>
</g>
<defs>
<clipPath id="clip0_761_885">
<rect width="91.3513" height="20" fill="white" transform="translate(0 0.5)"/>
</clipPath>
</defs>
</svg>
