<svg width="56" height="56" viewBox="0 0 56 56" fill="none" xmlns="http://www.w3.org/2000/svg">
<g id="Group 9">
<circle id="Ellipse 2" cx="28" cy="28" r="28" fill="#D2D2D2"/>
<g id="Group">
<path id="&#237;&#140;&#168;&#236;&#138;&#164;_50827" d="M28 13.2121C32.25 13.2121 35.75 16.6061 35.75 20.7273H37C37 15.8788 33 12 28 12C23 12 19 15.8788 19 20.7273H20.25C20.25 16.6061 23.75 13.2121 28 13.2121Z" fill="#A8A8AD"/>
<path id="&#237;&#140;&#168;&#236;&#138;&#164;_50828" d="M28.6667 36.2424V33.6566H27.4167V36.2424C23.4167 35.9192 20.3333 32.6869 20.3333 28.8081H19C19 33.4142 22.6667 37.1313 27.3333 37.4546V41.6566L24.75 39.1515L23.8333 40.0404L27.9167 44L32 40.0404L31.0833 39.1515L28.5 41.6566V37.4546C33.1667 37.1313 36.8333 33.3334 36.8333 28.8081H35.5833C35.75 32.6869 32.6667 36 28.6667 36.2424Z" fill="#A8A8AD"/>
<path id="&#237;&#140;&#168;&#236;&#138;&#164;_50829" d="M28 14.4243C24.25 14.4243 21.25 17.4142 21.25 20.9698V25.4142H22.5V20.9698C22.5 17.9799 25 15.6364 28 15.5556C28 15.6364 28 14.4243 28 14.4243Z" fill="#A8A8AD"/>
<path id="&#237;&#140;&#168;&#236;&#138;&#164;_50830" d="M34.833 28.4848V27.0303H33.583V28.4848C33.583 30.9091 31.9163 33.6565 29.583 33.6565V34.8686C32.6663 34.8686 34.833 31.5555 34.833 28.4848Z" fill="#A8A8AD"/>
<path id="&#237;&#140;&#168;&#236;&#138;&#164;_50831" d="M28.0007 22.8282C29.1673 22.8282 30.1673 21.8585 30.1673 20.7272C30.1673 19.5959 29.1673 18.707 28.0007 18.707C26.834 18.707 25.834 19.6767 25.834 20.808C25.834 21.9393 26.834 22.8282 28.0007 22.8282ZM28.0007 19.9192C28.5007 19.9192 28.9173 20.3232 28.9173 20.808C28.9173 21.2929 28.5007 21.6969 28.0007 21.6969C27.5007 21.6969 27.084 21.2929 27.084 20.808C27.084 20.3232 27.5007 19.9192 28.0007 19.9192Z" fill="#A8A8AD"/>
</g>
</g>
</svg>
