<svg width="48" height="48" viewBox="0 0 48 48" fill="none" xmlns="http://www.w3.org/2000/svg">
<circle cx="24" cy="24" r="24" fill="#D2D2D2"/>
<g clip-path="url(#clip0_525_529)">
<path d="M35.8716 24.5333C35.5031 26.9694 34.4639 29.1861 32.9489 30.9806L37.2573 35.1611L36.1163 36.3639L31.8024 32.1778C30.0291 33.8111 27.802 34.95 25.3358 35.375V41H23.6862V35.5528C23.5102 35.5611 23.3315 35.5639 23.1528 35.5639C21.5251 35.5639 19.9717 35.2556 18.5393 34.6972V33.1972C19.9525 33.825 21.5114 34.175 23.1528 34.175C29.4874 34.175 34.6426 28.9667 34.6426 22.5667C34.6426 19.0333 33.0699 15.8694 30.5982 13.7361C30.6229 13.7222 30.6477 13.7083 30.6697 13.6917C31.0408 13.4417 31.412 13.1944 31.7722 12.9333C32.1351 13.2667 32.4788 13.6194 32.8032 13.9917L33.2294 13.575C31.1151 11.6194 28.3684 10.3583 25.3358 10.1472V12.7028H23.6862V10.1389C20.6233 10.3139 17.8409 11.5583 15.6991 13.5111L17.6732 15.4278L16.5295 16.6278L14.5444 14.7028C12.6418 16.9278 11.465 19.7972 11.3798 22.9389H14.22V24.6056H11.4375C11.6493 26.7889 12.3916 28.8194 13.5299 30.5611C13.1092 30.7556 12.683 30.9444 12.2569 31.125C11.0471 29.2083 10.2663 26.9917 10.0573 24.6056H7V22.9389H10.0051C10.0931 19.425 11.4156 16.2139 13.5518 13.7389L11.5943 11.8417L12.738 10.6389L14.7038 12.5472C17.1013 10.3361 20.2357 8.925 23.6862 8.74722V6H25.3358V8.75833C28.7533 8.96944 31.8547 10.3944 34.2219 12.6083L36.339 10.5472L37.4827 11.7472L35.3684 13.8083C36.152 14.7278 36.8256 15.7472 37.3645 16.8417C36.9246 16.9806 36.4902 17.1417 36.0585 17.3111C35.5966 16.4 35.0302 15.55 34.3786 14.775L33.8205 15.3194C35.2062 17.3889 36.0173 19.8833 36.0173 22.5667C36.0173 22.6667 36.0173 22.7667 36.0118 22.8667H42V24.5333H35.8716Z" fill="black"/>
<path d="M24.2744 28.6863C21.514 28.6863 19.2705 26.4169 19.2705 23.6308C19.2705 20.8446 21.5168 18.5752 24.2744 18.5752C27.0321 18.5752 29.2784 20.8446 29.2784 23.6308C29.2784 26.4169 27.0321 28.6863 24.2744 28.6863ZM24.2744 19.9641C22.2729 19.9641 20.6452 21.6085 20.6452 23.6308C20.6452 25.653 22.2729 27.2974 24.2744 27.2974C26.276 27.2974 27.9037 25.653 27.9037 23.6308C27.9037 21.6085 26.276 19.9641 24.2744 19.9641Z" fill="black"/>
<path d="M16.5342 30.5887L11.4443 35.6953L12.6067 36.8779L17.6966 31.7713L16.5342 30.5887Z" fill="black"/>
</g>
<defs>
<clipPath id="clip0_525_529">
<rect width="35" height="35" fill="white" transform="translate(7 6)"/>
</clipPath>
</defs>
</svg>
